# xmcd
#
# Track frame offsets: 
#        150
#        12590
#        23715
#        36327
#        49097
#        62345
#        73200
#        85880
#        96885
#        110760
#        123360
#        135015
#        148885
#        161727
#        174692
#        187912
#        200777
#        213045
#        224657
#        236270
#        248627
#        259885
#        271910
#        284192
#
# Disc length: 3918 seconds
#
# Revision: 0
# Processed by: cddbd v1.5.1PL0 Copyright (c) Steve Scherf et al.
# Submitted via: ExactAudioCopy v0.95a4
#
DISCID=6e0f4c18
DTITLE=The Blue Sky Boys - The Sunny Side Of Life - Disc 5
DYEAR=1900
DGENRE=Country
TTITLE0=Romans 6:13
TTITLE1=I'll Take My Saviour By The Hand
TTITLE2=I Cannot Take You Back Now
TTITLE3=Behind These Prison Walls Of Love
TTITLE4=Angel Mother
TTITLE5=Let's Not Sleep Again
TTITLE6=Don't Take The Light (From My Dark Cell)
TTITLE7=The Cross On The Hill
TTITLE8=The Sweetest Gift, A Mothers Smile
TTITLE9=You've Branded Your Name On My Heart
TTITLE10=Little Mother Of The Hills
TTITLE11=Alabama
TTITLE12=One Cold Winter's Eve
TTITLE13=Paper Boy
TTITLE14=Shake Hands With Your Mother Today
TTITLE15=When Heaven Comes Down
TTITLE16=The Unfinished Rug
TTITLE17=Tears On Her Bridal Bouquet
TTITLE18=Lord Be With Us, Amen
TTITLE19=Drop Your Net
TTITLE20=There'll Be No Broken Hearts For Me
TTITLE21=The New Golden Rule
TTITLE22=Where Our Darling Sleeps Tonight
TTITLE23=Sunny Side Of Life
EXTD=
EXTT0=
EXTT1=
EXTT2=
EXTT3=
EXTT4=
EXTT5=
EXTT6=
EXTT7=
EXTT8=
EXTT9=
EXTT10=
EXTT11=
EXTT12=
EXTT13=
EXTT14=
EXTT15=
EXTT16=
EXTT17=
EXTT18=
EXTT19=
EXTT20=
EXTT21=
EXTT22=
EXTT23=
PLAYORDER=
